<svg width="83" height="49" viewBox="0 0 83 49" fill="none" xmlns="http://www.w3.org/2000/svg">
<path d="M77.0785 11.288C73.8825 11.288 71.2305 8.84 71.2305 5.712C71.2305 2.516 73.8825 0 77.0785 0C80.2745 0 82.9265 2.516 82.9265 5.712C82.9265 8.84 80.2745 11.288 77.0785 11.288Z" fill="#6A00FF"/>
<path d="M81.7707 48.0772H72.3867V16.1172H81.7707V48.0772Z" fill="black"/>
<path d="M56.5198 48.0772H47.6118L35.5078 16.1172H45.2998L50.3318 31.2132C50.9438 33.1172 51.6238 35.2932 51.9638 36.7892H52.0998C52.4398 35.2932 53.1198 33.1172 53.7318 31.2132L58.7638 16.1172H68.6238L56.5198 48.0772Z" fill="black"/>
<path d="M17.204 15.3672C27.268 15.3672 34.408 21.8952 34.408 32.1632V48.0752H26.112L25.568 43.3152C23.664 46.7152 20.196 48.8232 15.3 48.8232C7.004 48.8232 0 42.2952 0 32.0952C0 22.5752 7.208 15.3672 17.204 15.3672ZM17.204 40.7312C21.08 40.7312 25.16 38.1472 25.16 32.0952C25.16 26.9952 21.828 23.4592 17.204 23.4592C12.648 23.4592 9.248 26.9952 9.248 32.0952C9.248 37.1952 12.648 40.7312 17.204 40.7312Z" fill="black"/>
</svg>